<svg width="28" height="24" viewBox="0 0 28 24" fill="none" xmlns="http://www.w3.org/2000/svg">
<path d="M25.6368 2.12177C24.9645 1.44911 24.1662 0.915505 23.2876 0.551444C22.4089 0.187383 21.4672 0 20.5161 0C19.5651 0 18.6233 0.187383 17.7447 0.551444C16.8661 0.915505 16.0678 1.44911 15.3954 2.12177L14.0001 3.51714L12.6047 2.12177C11.2466 0.763676 9.40462 0.00070395 7.48397 0.000703964C5.56333 0.000703978 3.72136 0.763676 2.36326 2.12177C1.00516 3.47987 0.242188 5.32185 0.242188 7.24249C0.242187 9.16313 1.00516 11.0051 2.36326 12.3632L3.75862 13.7586L14.0001 24L24.2415 13.7586L25.6368 12.3632C26.3095 11.6909 26.8431 10.8926 27.2072 10.0139C27.5712 9.13531 27.7586 8.19356 27.7586 7.24249C27.7586 6.29142 27.5712 5.34967 27.2072 4.47104C26.8431 3.59241 26.3095 2.79412 25.6368 2.12177Z" fill="#FB5A0D"/>
</svg>
