<svg width="29.000000" height="25.000000" viewBox="0 0 29 25" fill="none" xmlns="http://www.w3.org/2000/svg" xmlns:xlink="http://www.w3.org/1999/xlink">
	<desc>
			Created with Pixso.
	</desc>
	<defs/>
	<path id="Vector" d="M23.04 0.55C22.16 0.18 21.22 0 20.27 0C19.32 0 18.38 0.18 17.5 0.55C16.62 0.91 15.82 1.44 15.15 2.12L13.75 3.51L12.36 2.12C11 0.76 9.16 0 7.24 0C5.32 0 3.48 0.76 2.12 2.12C0.76 3.48 0 5.32 0 7.24C0 9.16 0.76 11 2.12 12.36L3.51 13.75L13.75 24L24 13.75L25.39 12.36C26.06 11.69 26.6 10.89 26.96 10.01C27.32 9.13 27.51 8.19 27.51 7.24C27.51 6.29 27.32 5.34 26.96 4.47C26.6 3.59 26.06 2.79 25.39 2.12C24.72 1.44 23.92 0.91 23.04 0.55Z" stroke="#FB5A0D" stroke-opacity="1.000000" stroke-width="1.300000" stroke-linejoin="round"/>
</svg>
