<svg width="20" height="21" viewBox="0 0 20 21" fill="none" xmlns="http://www.w3.org/2000/svg">
<path d="M10 20C15.2467 20 19.5 15.7467 19.5 10.5C19.5 5.25329 15.2467 1 10 1C4.75329 1 0.5 5.25329 0.5 10.5C0.5 15.7467 4.75329 20 10 20Z" stroke="black" stroke-linecap="round" stroke-linejoin="round"/>
<path d="M13.1675 12.8759C12.6689 13.5404 11.974 14.0312 11.181 14.2788C10.388 14.5264 9.53727 14.5182 8.74921 14.2554C7.96115 13.9926 7.27573 13.4886 6.79003 12.8147C6.30433 12.1407 6.04297 11.3311 6.04297 10.5003C6.04296 9.66963 6.30431 8.85997 6.79 8.18603C7.27569 7.51209 7.9611 7.00804 8.74916 6.74526C9.53722 6.48248 10.388 6.47429 11.181 6.72186C11.9739 6.96942 12.6689 7.46019 13.1675 8.12466" stroke="black" stroke-linecap="round" stroke-linejoin="round"/>
</svg>
