<svg width="15" height="16" viewBox="0 0 15 16" fill="none" xmlns="http://www.w3.org/2000/svg">
<path d="M11.25 0.683594H3.75C1.67893 0.683594 0 2.36253 0 4.43359V11.9336C0 14.0047 1.67893 15.6836 3.75 15.6836H11.25C13.3211 15.6836 15 14.0047 15 11.9336V4.43359C15 2.36253 13.3211 0.683594 11.25 0.683594Z" fill="#FB5A0D"/>
<path d="M10.5008 7.71132C10.5933 8.3355 10.4867 8.97298 10.1961 9.53308C9.90545 10.0932 9.44562 10.5474 8.88198 10.8311C8.31834 11.1148 7.67959 11.2135 7.0566 11.1133C6.4336 11.013 5.85808 10.7189 5.41189 10.2727C4.96569 9.8265 4.67156 9.25098 4.57131 8.62798C4.47106 8.00498 4.56981 7.36624 4.8535 6.8026C5.1372 6.23896 5.5914 5.77913 6.1515 5.4885C6.71159 5.19788 7.34907 5.09126 7.97326 5.18382C8.60995 5.27823 9.1994 5.57492 9.65453 6.03005C10.1097 6.48518 10.4063 7.07463 10.5008 7.71132Z" fill="white"/>
<path d="M11.625 4.05664H11.6325" stroke="white" stroke-width="0.8125" stroke-linecap="round" stroke-linejoin="round"/>
</svg>
