<svg width="34" height="34" viewBox="0 0 34 34" fill="none" xmlns="http://www.w3.org/2000/svg">
<rect x="0.455225" y="0.3771" width="32.2863" height="32.2863" rx="16.1431" stroke="#9C9C9C" stroke-width="0.754199"/>
<path d="M20.2328 9.25146H12.9639C10.9567 9.25146 9.32947 10.8787 9.32947 12.8859V20.1548C9.32947 22.1621 10.9567 23.7893 12.9639 23.7893H20.2328C22.2401 23.7893 23.8673 22.1621 23.8673 20.1548V12.8859C23.8673 10.8787 22.2401 9.25146 20.2328 9.25146Z" fill="#35183D" stroke="#36193E" stroke-width="0.944957" stroke-linecap="round" stroke-linejoin="round"/>
<path d="M19.5038 16.0607C19.5935 16.6656 19.4901 17.2834 19.2085 17.8263C18.9268 18.3691 18.4811 18.8093 17.9349 19.0843C17.3886 19.3592 16.7695 19.4549 16.1657 19.3578C15.5619 19.2606 15.0041 18.9756 14.5717 18.5431C14.1393 18.1107 13.8542 17.5529 13.757 16.9491C13.6599 16.3453 13.7556 15.7262 14.0305 15.1799C14.3055 14.6337 14.7457 14.188 15.2885 13.9063C15.8314 13.6247 16.4492 13.5213 17.0541 13.611C17.6712 13.7025 18.2425 13.9901 18.6836 14.4312C19.1247 14.8723 19.4123 15.4436 19.5038 16.0607Z" fill="#EEEEE9"/>
<path d="M20.5951 12.5249H20.6011" stroke="#EEEEE9" stroke-width="0.944957" stroke-linecap="round" stroke-linejoin="round"/>
</svg>
