<svg width="29.064453" height="21.171875" viewBox="0 0 29.0645 21.1719" fill="none" xmlns="http://www.w3.org/2000/svg" xmlns:xlink="http://www.w3.org/1999/xlink">
	<desc>
			Created with Pixso.
	</desc>
	<defs/>
	<path id="Vector" d="M19 5.75391C19.9316 6.31641 20.6875 7.04492 21.209 7.88477C21.7285 8.72461 22 9.64844 22 10.5859C22 11.5254 21.7285 12.4492 21.209 13.2891C20.6875 14.127 19.9316 14.8574 19 15.4199M23.0508 2.12891C24.6152 3.14844 25.8789 4.43555 26.7461 5.90039C27.6152 7.36328 28.0645 8.96484 28.0645 10.5859C28.0645 12.209 27.6152 13.8105 26.7461 15.2734C25.8789 16.7363 24.6152 18.0254 23.0508 19.0449M2.5 14.2109C2.10156 14.2109 1.7207 14.084 1.43945 13.8574C1.1582 13.6309 1 13.3242 1 13.0039L1 8.16992C1 7.84961 1.1582 7.54297 1.43945 7.31641C1.7207 7.08984 2.10156 6.96094 2.5 6.96094L5.5 6.96094L10.75 1.52344C10.8809 1.31836 11.0996 1.1582 11.3633 1.07227C11.6289 0.984375 11.9238 0.976562 12.1973 1.04883C12.4688 1.12305 12.6992 1.27148 12.8457 1.46875C12.9941 1.66797 13.0488 1.90039 13 2.12891L13 19.0449C13.0488 19.2734 12.9941 19.5059 12.8457 19.7051C12.6992 19.9023 12.4688 20.0508 12.1973 20.123C11.9238 20.1973 11.6289 20.1895 11.3633 20.1016C11.0996 20.0156 10.8809 19.8535 10.75 19.6484L5.5 14.2109L2.5 14.2109Z" stroke="#FFFFFF" stroke-opacity="1.000000" stroke-width="2.000000" stroke-linejoin="round"/>
</svg>
