<svg width="16" height="14" viewBox="0 0 16 14" fill="none" xmlns="http://www.w3.org/2000/svg">
<path d="M16 0.246083C15.3036 0.737339 14.5324 1.11307 13.7164 1.35881C13.2784 0.855182 12.6962 0.498222 12.0488 0.336211C11.4013 0.174199 10.7196 0.214952 10.0961 0.452958C9.47248 0.690964 8.93705 1.11474 8.56217 1.66697C8.18729 2.2192 7.99105 2.87324 8 3.54063V4.2679C6.72192 4.30104 5.45547 4.01758 4.31346 3.44277C3.17145 2.86796 2.18932 2.01964 1.45455 0.973355C1.45455 0.973355 -1.45455 7.51881 5.09091 10.4279C3.59311 11.4446 1.80884 11.9544 0 11.8824C6.54545 15.5188 14.5455 11.8824 14.5455 3.51881C14.5448 3.31623 14.5253 3.11415 14.4873 2.91517C15.2295 2.18317 15.7533 1.25896 16 0.246083Z" fill="#FB5A0D"/>
</svg>
