<svg width="34" height="34" viewBox="0 0 34 34" fill="none" xmlns="http://www.w3.org/2000/svg">
<rect x="0.3771" y="0.3771" width="32.2863" height="32.2863" rx="16.1431" stroke="#9C9C9C" stroke-width="0.754199"/>
<path d="M24.5161 10.0058C23.82 10.4968 23.0493 10.8724 22.2336 11.118C21.7958 10.6146 21.214 10.2579 20.5669 10.0959C19.9197 9.934 19.2385 9.97473 18.6152 10.2126C17.992 10.4505 17.4568 10.874 17.0821 11.426C16.7075 11.9779 16.5113 12.6316 16.5203 13.2987V14.0255C15.2429 14.0587 13.9771 13.7754 12.8357 13.2009C11.6943 12.6263 10.7126 11.7785 9.97826 10.7327C9.97826 10.7327 7.0707 17.2747 13.6127 20.1823C12.1157 21.1985 10.3324 21.708 8.52448 21.6361C15.0665 25.2705 23.0623 21.6361 23.0623 13.2768C23.0616 13.0744 23.0421 12.8724 23.0041 12.6735C23.746 11.9419 24.2695 11.0182 24.5161 10.0058Z" fill="#35183D"/>
</svg>
