<svg width="15.406250" height="15.000000" viewBox="0 0 15.4062 15" fill="none" xmlns="http://www.w3.org/2000/svg" xmlns:xlink="http://www.w3.org/1999/xlink">
	<desc>
			Created with Pixso.
	</desc>
	<defs/>
	<path id="Vector" d="M14.9961 2.27539C15.125 2.1543 15.2266 2.00781 15.2969 1.84766C15.3672 1.68945 15.4043 1.51562 15.4062 1.3418C15.4082 1.16797 15.375 0.994141 15.3066 0.833984C15.2383 0.671875 15.1387 0.525391 15.0137 0.402344C14.8867 0.279297 14.7363 0.181641 14.5723 0.115234C14.4062 0.0488281 14.2305 0.015625 14.0508 0.0175781C13.873 0.0195312 13.6973 0.0546875 13.5332 0.123047C13.3691 0.193359 13.2207 0.292969 13.0957 0.417969L7.71094 5.67578L2.32617 0.417969C2.20312 0.289062 2.05469 0.185547 1.89062 0.113281C1.72656 0.0410156 1.54883 0.00390625 1.36719 0C1.1875 -0.00195312 1.00781 0.0292969 0.839844 0.0957031C0.673828 0.162109 0.521484 0.259766 0.394531 0.384766C0.265625 0.509766 0.166016 0.658203 0.0976562 0.820312C0.0292969 0.984375 -0.00390625 1.16016 0 1.33594C0.00390625 1.51172 0.0429688 1.68555 0.117188 1.84766C0.189453 2.00781 0.294922 2.15234 0.427734 2.27344L5.80859 7.5332L0.423828 12.791C0.1875 13.041 0.0566406 13.3691 0.0644531 13.709C0.0703125 14.0508 0.210938 14.375 0.457031 14.6152C0.703125 14.8555 1.03516 14.9922 1.38281 15C1.73242 15.0059 2.06836 14.8789 2.32422 14.6465L7.71094 9.38867L13.0957 14.6484C13.3496 14.8809 13.6855 15.0059 14.0352 15C14.3828 14.9941 14.7148 14.8574 14.9609 14.6172C15.207 14.377 15.3477 14.0508 15.3535 13.7109C15.3613 13.3711 15.2305 13.043 14.9941 12.793L9.61328 7.5332L14.9961 2.27539Z" fill="#FFFFFF" fill-opacity="1.000000" fill-rule="nonzero"/>
</svg>
