<svg width="34" height="34" viewBox="0 0 34 34" fill="none" xmlns="http://www.w3.org/2000/svg">
<rect x="0.5021" y="0.3771" width="32.2863" height="32.2863" rx="16.1431" stroke="#9C9C9C" stroke-width="0.754199"/>
<path d="M24.3067 12.6604C24.2203 12.3155 24.0445 11.9994 23.7969 11.7441C23.5493 11.4889 23.2387 11.3035 22.8965 11.2067C21.6463 10.9014 16.6453 10.9014 16.6453 10.9014C16.6453 10.9014 11.6443 10.9014 10.394 11.2357C10.0518 11.3325 9.74124 11.5179 9.49363 11.7732C9.24603 12.0285 9.07018 12.3445 8.98383 12.6895C8.75502 13.9583 8.64309 15.2455 8.64946 16.5348C8.64131 17.8338 8.75324 19.1307 8.98383 20.4091C9.07903 20.7433 9.25882 21.0474 9.50584 21.2919C9.75287 21.5364 10.0588 21.713 10.394 21.8047C11.6443 22.1391 16.6453 22.1391 16.6453 22.1391C16.6453 22.1391 21.6463 22.1391 22.8965 21.8047C23.2387 21.7079 23.5493 21.5225 23.7969 21.2673C24.0445 21.012 24.2203 20.6959 24.3067 20.3509C24.5337 19.0917 24.6456 17.8143 24.641 16.5348C24.6492 15.2358 24.5373 13.9388 24.3067 12.6604Z" fill="#35183D"/>
<path d="M15.0006 18.9091L19.1802 16.5322L15.0006 14.1553V18.9091Z" fill="#EEEEE9"/>
</svg>
